<svg width="31" height="37" viewBox="0 0 31 37" fill="none" xmlns="http://www.w3.org/2000/svg">
<g clip-path="url(#clip0_2212_345)">
<path d="M30.0447 10.6605C30.5298 10.8348 30.6529 11.2385 30.6521 11.7441C30.6444 16.3706 30.6397 20.997 30.6382 25.6234C30.6393 25.6431 30.6416 25.6628 30.6451 25.6823C30.5952 25.7812 30.647 25.8959 30.6038 25.9959C30.5021 26.5399 30.334 27.0698 30.1033 27.5738C29.6797 28.4242 29.0165 29.1354 28.1936 29.6217C26.8636 30.4462 25.5398 31.2825 24.2139 32.1148C22.8242 32.987 21.4347 33.8596 20.0453 34.7325C19.155 35.2892 18.2812 35.8774 17.3672 36.389C17.2418 36.4162 17.1117 36.4139 16.9874 36.3821C16.8526 36.3407 16.7329 36.2614 16.6429 36.1538C16.553 36.0462 16.4968 35.915 16.4811 35.7763C16.4454 35.3901 16.4678 35.0028 16.4667 34.6162C16.4632 33.3547 16.4659 32.0933 16.4643 30.8318C16.4781 30.7235 16.4706 30.6136 16.4425 30.5081C16.4479 30.3995 16.4584 30.291 16.4582 30.1824C16.4518 26.7144 16.4499 23.2464 16.4305 19.7785C16.4104 19.5831 16.449 19.3862 16.5415 19.2124C16.634 19.0387 16.7762 18.8958 16.9505 18.8016C20.8094 16.3648 24.6538 13.9008 28.5007 11.4417C28.8968 11.1379 29.3236 10.8757 29.7744 10.6592C29.8624 10.6312 29.957 10.6317 30.0447 10.6605Z" fill="#FEB000"/>
<path d="M2.16654 11.5125C2.30903 11.639 2.47303 11.7395 2.65097 11.8095C2.74357 11.8228 2.83198 11.8565 2.90967 11.9081C2.98736 11.9597 3.05237 12.0279 3.09991 12.1076C3.12379 12.1408 3.15457 12.1687 3.19018 12.1893C3.2258 12.2099 3.26544 12.2227 3.30647 12.227C3.56909 12.2985 3.80226 12.45 3.97284 12.66C4.03789 12.746 4.13359 12.8042 4.24051 12.823C4.33324 12.8371 4.42167 12.8712 4.49953 12.923C4.57739 12.9748 4.64276 13.0429 4.69099 13.1224C4.8334 13.2493 4.99765 13.3499 5.17595 13.4194C5.2684 13.4331 5.35662 13.467 5.43417 13.5186C5.51171 13.5702 5.57665 13.6383 5.62424 13.7179C5.64806 13.7514 5.67895 13.7794 5.71477 13.7999C5.75059 13.8205 5.79049 13.8331 5.83172 13.8369C5.99499 13.9136 6.18859 13.9365 6.28226 14.1368C6.42475 14.2632 6.58871 14.3637 6.76658 14.4337C6.85927 14.4469 6.94777 14.4806 7.02549 14.5322C7.10322 14.5839 7.16818 14.6522 7.21554 14.7321C7.39695 14.8821 7.59764 15.0077 7.81239 15.1055C7.87145 15.1035 7.92969 15.1196 7.97914 15.1516C8.02858 15.1836 8.06681 15.2299 8.08858 15.2842C8.15357 15.3702 8.2493 15.4285 8.35624 15.4471C8.44897 15.4613 8.53741 15.4954 8.61527 15.5472C8.69313 15.5989 8.7585 15.667 8.80673 15.7466C8.94899 15.8734 9.113 15.9741 9.29104 16.0439C9.38365 16.0573 9.47205 16.091 9.54974 16.1426C9.62744 16.1942 9.69244 16.2623 9.73998 16.342C9.76394 16.3752 9.79474 16.403 9.83034 16.4236C9.86594 16.4442 9.90554 16.4571 9.94654 16.4615C10.2089 16.5332 10.442 16.6844 10.6131 16.8939C10.6779 16.9804 10.7739 17.0389 10.8813 17.0572C10.9738 17.0717 11.062 17.106 11.1397 17.1577C11.2174 17.2094 11.2828 17.2772 11.3312 17.3565C11.5126 17.5065 11.7133 17.632 11.9281 17.7297C11.9872 17.7276 12.0455 17.7437 12.095 17.7758C12.1444 17.8078 12.1826 17.8543 12.2043 17.9087C12.2694 17.9945 12.365 18.0526 12.4718 18.0714C12.5647 18.0853 12.6532 18.1195 12.7311 18.1713C12.809 18.2231 12.8743 18.2914 12.9223 18.3712C13.0649 18.4976 13.2289 18.5981 13.4068 18.6681C13.5001 18.6806 13.5892 18.7145 13.6668 18.7672C13.7445 18.8198 13.8085 18.8898 13.8539 18.9714C14.046 19.1956 14.144 19.4841 14.1277 19.7776C14.1278 21.1159 14.1361 22.4543 14.1414 23.7927C14.1619 23.8796 14.1676 23.9693 14.1582 24.058C14.1589 27.8962 14.1588 31.7344 14.1581 35.5726C14.169 35.6611 14.1624 35.7509 14.1386 35.837C14.0396 36.0704 13.8624 36.263 13.6369 36.3827C13.512 36.4161 13.3804 36.4162 13.2555 36.3828C12.8803 36.2329 12.5281 36.0321 12.2089 35.7861C11.3288 35.2636 10.4682 34.7024 9.60163 34.1532C8.70396 33.5844 7.81087 33.0069 6.91135 32.4416C5.80085 31.7437 4.68169 31.0619 3.57427 30.3583C2.94144 29.9908 2.32927 29.5894 1.74048 29.1562C1.14158 28.6588 0.677837 28.0213 0.391391 27.3017C0.181692 26.8317 0.0556194 26.3294 0.0187263 25.817C-0.00073588 25.7298 -0.00611932 25.6402 0.00277592 25.5513C0.00214787 20.8788 0.00216615 16.2063 0.00283075 11.5338C-0.00686475 11.445 -0.0010034 11.3553 0.0201568 11.2685C0.0420079 11.161 0.0897061 11.0603 0.159221 10.9749C0.228735 10.8894 0.318024 10.8218 0.419542 10.7777C0.521059 10.7336 0.631823 10.7143 0.742473 10.7214C0.853124 10.7286 0.960409 10.7619 1.05526 10.8187C1.30229 10.9609 1.54042 11.1212 1.78256 11.2734C1.86285 11.2734 1.9415 11.2958 2.00945 11.3381C2.07739 11.3804 2.13185 11.4409 2.16654 11.5125Z" fill="#FE005F"/>
<path d="M11.4445 14.5547L10.9574 14.2216C10.7565 14.2385 10.6612 14.0441 10.5116 13.9583L10.1387 13.7055C9.92202 13.6477 9.72727 13.5282 9.57867 13.3619L9.20473 13.1096C9.02329 13.0773 8.86174 12.9763 8.75442 12.8281L8.46213 12.6434C8.21477 12.5664 7.9933 12.4242 7.82149 12.2321C7.70312 12.1774 7.59461 12.104 7.50028 12.0146C7.29916 12.0319 7.20394 11.8373 7.05431 11.7515L6.56712 11.4193C6.36658 11.4349 6.27104 11.2412 6.12141 11.1553L5.74769 10.9028C5.56617 10.8707 5.4045 10.7698 5.29718 10.6215L4.70069 10.2289C4.63215 10.2244 4.56575 10.2035 4.50715 10.168C4.44856 10.1326 4.39952 10.0836 4.36424 10.0254C4.24589 9.97061 4.13741 9.89708 4.04308 9.80769C3.84185 9.82543 3.74669 9.63054 3.59704 9.54489L3.11002 9.21185C2.90909 9.22865 2.81375 9.0343 2.66414 8.94848C2.5305 8.85579 2.39205 8.77008 2.24935 8.69171C2.13953 8.6254 2.04847 8.53268 1.98465 8.42218C1.92083 8.31169 1.88633 8.18702 1.88437 8.05978C1.8824 7.93255 1.91304 7.8069 1.97342 7.69453C2.03379 7.58216 2.12195 7.48673 2.22968 7.41713C3.32654 6.73277 4.42572 6.05277 5.52148 5.36632C7.01347 4.43165 8.50425 3.49469 9.99382 2.55543C11.0817 1.87135 12.1572 1.16244 13.2628 0.514248C13.7231 0.233639 14.2486 0.0745489 14.7888 0.0522003C14.9315 -0.0173013 15.088 0.0643163 15.2315 0.00391889C15.2394 0.0009851 15.2478 -0.000324974 15.2563 6.81891e-05C15.2648 0.000461352 15.273 0.00254955 15.2807 0.00620603C15.3161 0.0537846 15.3415 0.107938 15.3554 0.165439C15.3693 0.22294 15.3713 0.282612 15.3613 0.340898C15.3625 4.61169 15.3624 8.88247 15.361 13.1533C15.3613 13.2026 15.3581 13.252 15.3516 13.3009C15.3478 13.3342 15.336 13.3661 15.3171 13.3939C15.2983 13.4217 15.2729 13.4446 15.2432 13.4607C14.2848 13.9315 13.4217 14.5861 12.5047 15.1366C12.4886 15.1458 12.4719 15.1539 12.4548 15.161C12.343 15.1895 12.2716 15.1253 12.2117 15.0351C12.0933 14.9805 11.9848 14.907 11.8905 14.8175C11.6893 14.8352 11.5941 14.6403 11.4445 14.5547Z" fill="#0080FC"/>
<path d="M15.3431 0.00492687L15.7066 0.000244141C15.7983 0.0532625 15.9038 -0.0010128 15.9965 0.0443062C17.1201 0.239783 18.0213 0.961456 18.9759 1.54893C20.5811 2.53683 22.1739 3.54858 23.7711 4.55197C25.3054 5.51588 26.8397 6.47988 28.3739 7.44397C28.5057 7.53815 28.6114 7.66366 28.6812 7.8089C28.712 7.94527 28.7123 8.08663 28.6823 8.22316C28.5828 8.42823 28.4201 8.59682 28.2177 8.70469C24.9433 10.7915 21.67 12.8802 18.3977 14.9708C18.3117 15.0257 18.2259 15.0806 18.14 15.1356C17.4682 14.7762 16.843 14.328 16.1915 13.9298C15.9603 13.7736 15.7187 13.6329 15.4684 13.5088C15.3805 13.4701 15.2978 13.4285 15.3126 13.2991C15.3134 8.98358 15.3141 4.6686 15.3145 0.354204C15.2942 0.237254 15.304 0.117117 15.3431 0.00492687Z" fill="#006EC4"/>
<path d="M15.3344 13.4089C15.5369 13.4366 15.7272 13.5206 15.8833 13.6512C16.5853 14.0889 17.2857 14.5297 17.9843 14.9737C18.0425 15.0215 18.0948 15.0758 18.1401 15.1357C17.4386 15.5886 16.7371 16.0417 16.0357 16.4949C15.9666 16.5397 15.9008 16.5908 15.8335 16.6389C15.7956 16.7081 15.7404 16.7665 15.6732 16.8086C15.6059 16.8507 15.5289 16.8751 15.4495 16.8793C15.2354 17.0162 15.066 16.8675 14.8933 16.7695C14.7269 16.6751 14.5685 16.5643 14.4066 16.4607C14.2397 16.4531 14.1527 16.2957 14.0228 16.2187L13.5908 15.9146C13.4095 15.8795 13.2494 15.7758 13.1445 15.6254L12.5469 15.2449C12.5173 15.2444 12.489 15.2327 12.4678 15.2124C12.4465 15.192 12.4338 15.1644 12.4324 15.1351C12.7816 14.861 13.1513 14.6134 13.5382 14.3945C13.9483 14.123 14.3647 13.8627 14.7808 13.6022C14.9255 13.4877 15.1018 13.4192 15.2865 13.4057C15.3039 13.3823 15.3198 13.3845 15.3344 13.4089Z" fill="#00539A"/>
</g>
<defs>
<clipPath id="clip0_2212_345">
<rect width="30.6521" height="36.4078" fill="white"/>
</clipPath>
</defs>
</svg>
